<!-- icon666.com - MILLIONS vector ICONS FREE --><svg viewBox="0 0 512 512" xmlns="http://www.w3.org/2000/svg"><path d="m512 256c0 141.386719-114.613281 256-256 256s-256-114.613281-256-256 114.613281-256 256-256 256 114.613281 256 256zm0 0" fill="#ff7855"/><path d="m512 256c0-7.460938-.339844-14.839844-.964844-22.136719l-115.949218-115.949219-277.171876 277.171876 115.949219 115.949218c7.296875.625 14.675781.964844 22.136719.964844 141.386719 0 256-114.613281 256-256zm0 0" fill="#ff562b"/><path d="m60 256c0 108.246094 87.753906 196 196 196l17.042969-196-17.042969-196c-108.246094 0-196 87.753906-196 196zm0 0" fill="#bfdcff"/><path d="m256 60v392c108.246094 0 196-87.753906 196-196s-87.753906-196-196-196zm0 0" fill="#8bc0ff"/><path d="m94.085938 256c0 89.277344 72.636718 161.914062 161.914062 161.914062l17.042969-161.914062-17.042969-161.914062c-89.277344 0-161.914062 72.636718-161.914062 161.914062zm0 0" fill="#3897ff"/><path d="m256 94.085938v323.828124c89.277344 0 161.914062-72.636718 161.914062-161.914062s-72.636718-161.914062-161.914062-161.914062zm0 0" fill="#2d79cc"/><path d="m230.433594 170.78125c0 14.121094 11.449218 25.566406 25.566406 25.566406l8.523438-25.566406-8.523438-25.5625c-14.117188 0-25.566406 11.445312-25.566406 25.5625zm0 0" fill="#fff"/><path d="m256 145.21875v51.128906c14.117188 0 25.566406-11.445312 25.566406-25.566406 0-14.117188-11.449218-25.5625-25.566406-25.5625zm0 0" fill="#bfdcff"/><path d="m230.433594 230.433594v136.347656h25.566406l8.523438-68.171875-8.523438-68.175781zm0 0" fill="#fff"/><path d="m256 230.433594h25.566406v136.347656h-25.566406zm0 0" fill="#bfdcff"/></svg>