<!-- icon666.com - MILLIONS vector ICONS FREE --><svg id="Capa_1" enable-background="new 0 0 512 512" viewBox="0 0 512 512" xmlns="http://www.w3.org/2000/svg"><g><path d="m512 256c0 75.66-32.83 143.66-85.02 190.53-45.33 40.7-105.26 38.45-170.98 38.45s-125.65 2.25-170.98-38.45c-52.19-46.87-85.02-114.87-85.02-190.53 0-141.38 114.62-256 256-256s256 114.62 256 256z" fill="#9dc6fb"/><path d="m499.45 335.38c-20.53 63.02-64.85 115.29-122.35 146.21h-9.3c-6.73 0-12.82-2.73-17.23-7.14s-7.14-10.5-7.14-17.23c0-13.46 10.91-24.37 24.37-24.37h40.36c6.73 0 12.82-2.73 17.23-7.14s7.14-10.5 7.14-17.23c0-13.45-10.91-24.36-24.37-24.36h-5.04c-6.73 0-12.82-2.73-17.23-7.14s-7.14-10.5-7.14-17.23c0-13.46 10.91-24.37 24.37-24.37z" fill="#e4f6ff"/><path d="m258.6 55.46c-.23 13.38-11.53 23.93-24.91 23.93h-80.44c-6.73 0-12.82 2.73-17.23 7.14s-7.14 10.5-7.14 17.23v.17c-.06 8.22-6.92 14.77-15.14 14.77h-52.54s-9.89 0-21.3 0c29.65-46.57 73.94-82.91 126.39-102.53 3.79 8.53 12.34 14.48 22.28 14.48h45.67c6.73 0 12.82 2.73 17.23 7.14 4.5 4.51 7.26 10.77 7.13 17.67z" fill="#e4f6ff"/><path d="m102.716 381.249h-83.645l61.235-203.141 17.235 5.195-54.245 179.946h46.046l55.81-185.141 17.234 5.195z" fill="#ffd064"/><path d="m492.929 381.249h-83.645l-59.67-197.946 17.234-5.195 55.81 185.141h46.046l-54.245-179.946 17.235-5.195z" fill="#ffd064"/><path d="m401.956 382.249h91.781c5.523 0 10-4.477 10-10s-4.477-10-10-10h-91.781c-5.523 0-10 4.477-10 10s4.477 10 10 10z" fill="#707dd3"/><path d="m353.78 362.249h-6.535l-55.508-184.141-17.234 5.195 53.942 178.946h-46.045l-55.508-184.141-17.234 5.195 53.942 178.946h-1.6c-5.523 0-10 4.477-10 10s4.477 10 10 10h91.781c5.523 0 10-4.477 10-10s-4.478-10-10.001-10z" fill="#80b4fb"/><path d="m110.044 382.249h-91.781c-5.523 0-10-4.477-10-10s4.477-10 10-10h91.781c5.523 0 10 4.477 10 10s-4.477 10-10 10z" fill="#707dd3"/><path d="m219.587 201.655h72.826v249.406h-72.826z" fill="#88bdf4"/><path d="m219.587 201.655h72.826v72.826h-72.826z" fill="#77a3e9"/><path d="m219.587 201.655h23.197v249.406h-23.197z" fill="#77a3e9"/><g><path d="m287.425 283.485h-62.85c-6.887 0-12.47-5.583-12.47-12.47 0-6.887 5.583-12.47 12.47-12.47h62.85c6.887 0 12.47 5.583 12.47 12.47 0 6.887-5.583 12.47-12.47 12.47z" fill="#dd5ca2"/><path d="m248.075 283.485h-23.5c-6.89 0-12.47-5.58-12.47-12.47 0-3.44 1.4-6.56 3.65-8.81 2.26-2.26 5.37-3.66 8.82-3.66h23.5c-3.45 0-6.56 1.4-8.82 3.66-2.25 2.25-3.65 5.37-3.65 8.81 0 6.89 5.58 12.47 12.47 12.47z" fill="#c14098"/></g><g><path d="m287.425 332.368h-62.85c-6.887 0-12.47-5.583-12.47-12.47 0-6.887 5.583-12.47 12.47-12.47h62.85c6.887 0 12.47 5.583 12.47 12.47 0 6.887-5.583 12.47-12.47 12.47z" fill="#f6f9f9"/><path d="m248.075 332.368h-23.5c-6.89 0-12.47-5.58-12.47-12.47 0-3.44 1.4-6.56 3.65-8.81 2.26-2.26 5.37-3.66 8.82-3.66h23.5c-3.45 0-6.56 1.4-8.82 3.66-2.25 2.25-3.65 5.37-3.65 8.81 0 6.89 5.58 12.47 12.47 12.47z" fill="#dddaec"/></g><g><path d="m287.425 381.252h-62.85c-6.887 0-12.47-5.583-12.47-12.47 0-6.887 5.583-12.47 12.47-12.47h62.85c6.887 0 12.47 5.583 12.47 12.47 0 6.887-5.583 12.47-12.47 12.47z" fill="#dd5ca2"/><path d="m248.075 381.252h-23.5c-6.89 0-12.47-5.58-12.47-12.47 0-3.44 1.4-6.56 3.65-8.81 2.26-2.26 5.37-3.66 8.82-3.66h23.5c-3.45 0-6.56 1.4-8.82 3.66-2.25 2.25-3.65 5.37-3.65 8.81 0 6.89 5.58 12.47 12.47 12.47z" fill="#c14098"/></g><g><path d="m287.425 430.135h-62.85c-6.887 0-12.47-5.583-12.47-12.47 0-6.887 5.583-12.47 12.47-12.47h62.85c6.887 0 12.47 5.583 12.47 12.47 0 6.887-5.583 12.47-12.47 12.47z" fill="#f6f9f9"/><path d="m248.075 430.135h-23.5c-6.89 0-12.47-5.58-12.47-12.47 0-3.44 1.4-6.56 3.65-8.81 2.26-2.26 5.37-3.66 8.82-3.66h23.5c-3.45 0-6.56 1.4-8.82 3.66-2.25 2.25-3.65 5.37-3.65 8.81 0 6.89 5.58 12.47 12.47 12.47z" fill="#dddaec"/></g><path d="m204.8 193.267c0 28.277-22.923 51.2-51.2 51.2s-51.2-22.923-51.2-51.2l66.559-23.535z" fill="#dd5ca2"/><path d="m409.6 193.267c0 28.277-22.923 51.2-51.2 51.2s-51.2-22.923-51.2-51.2l66.559-23.535z" fill="#dd5ca2"/><path d="m307.2 193.267c0 28.277-22.923 51.2-51.2 51.2s-51.2-22.923-51.2-51.2l66.559-23.535z" fill="#f6f9f9"/><path d="m409.6 193.267c0 28.277 22.923 51.2 51.2 51.2s51.2-22.923 51.2-51.2l-66.559-23.535z" fill="#f6f9f9"/><path d="m102.4 193.267c0 28.277-22.923 51.2-51.2 51.2s-51.2-22.923-51.2-51.2l66.559-23.535z" fill="#dddaec"/><path d="m256.972 193.267h255.028l-256-171.847" fill="#dd5ca2"/><path d="m256 21.42-256 171.847h256.972" fill="#c14098"/><path d="m256 21.42-153.6 171.847h307.2z" fill="#f6f9f9"/><path d="m256 21.42-51.2 171.847h102.4z" fill="#dd5ca2"/><path d="m280.172 24.172h-12.246v-12.246c0-6.587-5.339-11.926-11.926-11.926-6.587 0-11.926 5.339-11.926 11.926v12.246h-12.246c-6.587 0-11.926 5.34-11.926 11.926s5.339 11.926 11.926 11.926h12.246v12.246c0 6.587 5.34 11.926 11.926 11.926 6.587 0 11.926-5.34 11.926-11.926v-12.245h12.246c6.587 0 11.926-5.34 11.926-11.926s-5.339-11.927-11.926-11.927z" fill="#ffd064"/><path d="m426.98 446.53c-45.33 40.7-105.26 65.47-170.98 65.47s-125.65-24.77-170.98-65.47z" fill="#dd5ca2"/></g></svg>