<!-- icon666.com - MILLIONS vector ICONS FREE --><svg id="Capa_1" enable-background="new 0 0 512 512" viewBox="0 0 512 512" xmlns="http://www.w3.org/2000/svg"><g><g><path d="m485 234.745 12.238-10.726c-20.319-114.814-120.592-202.019-241.238-202.019s-220.919 87.205-241.238 202.019l12.238 10.726-15.997 32.033c0 .074-.003.148-.003.223 0 52.729 16.661 101.564 45 141.537h400c28.339-39.973 45-88.808 45-141.537 0-.074-.003-.148-.003-.223z" fill="#024788"/></g><g><circle cx="256" cy="232" fill="#003060" r="190"/></g><g><path d="m256 67-200 146.759v194.778c8.198 11.563 17.376 22.382 27.409 32.341v-.002h72.435l67.565 68.961v.007c10.663 1.417 21.54 2.156 32.591 2.156 82.581 0 155.616-40.86 200-103.463v-194.778c-68.359-50.162-200-146.759-200-146.759z" fill="#fcf6f5"/></g><g><path d="m83.422 440.876h29.987v-186.855c0-12.738 6.066-24.714 16.336-32.249l168.587-123.709c-25.158-18.46-42.332-31.063-42.332-31.063l-200 146.759v194.778c8.2 11.566 17.386 22.38 27.422 32.339z" fill="#fce9e0"/></g><g><path d="m446 201.284v-151.284h-110v70.567z" fill="#fcf6f5"/></g><g><path d="m376 100.196v-50.196h-40v70.567l110 80.717v-39.592l-61.832-45.372c-5.135-3.767-8.168-9.755-8.168-16.124z" fill="#fce9e0"/></g><g><path d="m446 60h-110c-8.284 0-15-6.716-15-15v-25h140v25c0 8.284-6.716 15-15 15z" fill="#ce684d"/></g><g><path d="m361 45v-25h-40v25c0 8.284 6.716 15 15 15h40c-8.284 0-15-6.716-15-15z" fill="#bf5e4b"/></g><g><path d="m460.576 30c8.077 0 15.027-6.207 15.406-14.275.406-8.614-6.457-15.725-14.982-15.725h-139.576c-8.077 0-15.027 6.207-15.406 14.275-.406 8.614 6.457 15.725 14.982 15.725z" fill="#e07763"/></g><g><path d="m346.017 14.275c.38-8.068 7.33-14.275 15.407-14.275h-40c-8.077 0-15.027 6.207-15.406 14.275-.406 8.614 6.457 15.725 14.982 15.725h40c-8.525 0-15.388-7.111-14.983-15.725z" fill="#ce684d"/></g><g><path d="m497.238 224.019-205.742-150.972c-21.125-15.502-49.867-15.502-70.993 0l-205.741 150.972c-2.457 13.885-3.747 28.172-3.76 42.759l233.166-171.096c7.042-5.167 16.622-5.167 23.664 0l233.165 171.095c-.013-14.587-1.302-28.874-3.759-42.758z" fill="#ce684d"/></g><g><path d="m276 329.778h70v91.111h-70z" fill="#fff"/><path d="m346.5 421.389h-71v-92.111h71zm-70-1h69v-90.111h-69z"/></g><g><path d="m408.591 425.889h-132.591c-11.046 0-20-8.954-20-20v-91.111c0-11.046 8.954-20 20-20h132.591c11.046 0 20 8.954 20 20v91.111c0 11.046-8.954 20-20 20z" fill="#bf5e4b"/></g><g><path d="m304.705 405.889v-91.111c0-11.046 8.954-20 20-20h-48.705c-11.046 0-20 8.954-20 20v91.111c0 11.046 8.954 20 20 20h48.705c-11.046 0-20-8.954-20-20z" fill="#aa493c"/></g><g><path d="m276 314.777h132.591v91.111h-132.591z" fill="#ffdd40"/></g><g><path d="m276 314.777h28.705v91.111h-28.705z" fill="#ffc839"/></g><g><path d="m276 370.333h132.591c5.523 0 10-4.477 10-10 0-5.523-4.477-10-10-10h-132.591c-5.523 0-10 4.477-10 10 0 5.523 4.477 10 10 10z" fill="#ce684d"/></g><g><path d="m179.705 265.094h152.591c11.046 0 20-8.954 20-20 0-11.046-8.954-20-20-20h-152.591c-11.046 0-20 8.954-20 20 0 11.045 8.954 20 20 20z" fill="#fcd7c3"/></g><g><path d="m332.295 315.333v90c0 5.523 4.477 10 10 10 5.523 0 10-4.477 10-10v-90c0-5.523-4.477-10-10-10-5.522 0-10 4.477-10 10z" fill="#e07763"/></g><g><path d="m203.409 294.778h-100c-11.046 0-20 8.954-20 20v126.098c6.336 6.29 13.022 12.226 20.011 17.797h49.989l50 47.65v.004c6.572 1.437 13.242 2.612 20 3.51v-195.06c0-11.045-8.954-19.999-20-19.999z" fill="#bf5e4b"/></g><g><path d="m128.409 458.673v-143.895c0-11.046 8.954-20 20-20h-45c-11.046 0-20 8.954-20 20v126.098c6.338 6.292 13.03 12.224 20.022 17.797z" fill="#aa493c"/></g><g><path d="m103.409 458.673c28.763 22.928 62.799 39.512 100 47.65v-191.545h-100z" fill="#e07763"/></g><g><path d="m103.409 458.673c7.947 6.335 16.292 12.192 25 17.515v-161.41h-25z" fill="#ce684d"/></g><g><circle cx="128.409" cy="420.889" fill="#aa493c" r="10"/></g><g><g><path d="m301.804 158.203c-25.313-11.251-45.804 11.651-45.804 11.651s-20.491-22.902-45.804-11.652-25.313 48.617-2.813 73.528c13.863 15.348 29.099 25.358 38.753 30.782 6.128 3.442 13.599 3.442 19.727 0 9.654-5.423 24.89-15.433 38.753-30.782 22.501-24.911 22.501-62.277-2.812-73.527z" fill="#ff7186"/></g><g><path d="m265.863 262.512c-14.785-19.09-26.915-73.181-9.863-92.658 0 0-20.491-22.902-45.804-11.652s-25.313 48.617-2.813 73.528c13.863 15.348 29.099 25.358 38.753 30.782 6.128 3.442 13.6 3.442 19.727 0z" fill="#ff4155"/></g></g><g><path d="m240.807 76.614c0-8.391 6.802-15.193 15.193-15.193-12.467 0-24.934 3.875-35.496 11.626l-205.742 150.972c-2.457 13.885-3.747 28.172-3.76 42.759l233.166-171.096c3.521-2.584 7.676-3.875 11.832-3.875-8.391 0-15.193-6.802-15.193-15.193z" fill="#bf5e4b"/></g></g></svg>